<svg
        class="svg_logo"
        version="1.1"
        xmlns="http://www.w3.org/2000/svg"
        xmlns:xlink="http://www.w3.org/1999/xlink"
        x="0px"
        y="0px"
        width="156.45px"
        height="23.424px"
        viewBox="0 0 156.45 23.424"
        enable-background="new 0 0 156.45 23.424"
        xml:space="preserve"
      >
        <g>
          <g>
            <path
              fill="#FB3449"
              d="M43.319,3.463c2.131,2.061,3.466,5.014,3.466,8.296c0,3.279-1.335,6.234-3.466,8.295
                        c-2.13-2.061-3.465-5.016-3.465-8.295C39.854,8.477,41.188,5.523,43.319,3.463z"
            ></path>
            <g>
              <path
                class="txt"
                fill="#fff"
                d="M12.375,11.96c2.026,0,4.569-1.544,5.394-3.567c0.619-1.518,0.619-3.104,0.001-4.621
                            c-0.823-2.025-3.367-3.57-5.395-3.57H0v0.115v0.086v11.155v0.403v11.154h2.473V11.96h3.168c0.781,0,1.529,0.338,2.082,0.941
                            l9.346,10.213h3.05L9.911,11.96H12.375z M2.473,11.557V0.604h7.838c2.338,0,4.557,1.58,5.168,4.046
                            c0.235,0.949,0.235,1.913,0,2.861c-0.611,2.466-2.83,4.046-5.168,4.046H2.473z"
              ></path>
              <path
                class="txt"
                fill="#fff"
                d="M61.818,5.236c-0.487-0.621-1.041-1.199-1.654-1.727
                            c-0.307-0.264-0.627-0.516-0.961-0.753C58.534,2.281,57.812,1.86,57.045,1.5c-1.919-0.898-4.117-1.408-6.454-1.408
                            c-2.336,0-4.535,0.51-6.454,1.408c-0.281,0.132-0.549,0.281-0.818,0.428c-0.268-0.147-0.537-0.296-0.818-0.428
                            c-1.918-0.898-4.117-1.408-6.454-1.408c-2.336,0-4.535,0.51-6.454,1.408c-0.767,0.359-1.49,0.781-2.158,1.256
                            c-0.334,0.238-0.656,0.489-0.962,0.753c-0.613,0.527-1.167,1.105-1.653,1.727c-0.487,0.62-0.906,1.283-1.248,1.981
                            c-0.686,1.396-1.064,2.93-1.064,4.541v0.001c0,1.61,0.379,3.145,1.064,4.54c0.342,0.698,0.761,1.361,1.248,1.981
                            c0.487,0.621,1.041,1.199,1.653,1.727c0.306,0.264,0.627,0.516,0.962,0.754c0.668,0.475,1.391,0.896,2.158,1.255
                            c1.918,0.897,4.117,1.408,6.454,1.408c2.337,0,4.535-0.511,6.454-1.408c0.281-0.132,0.55-0.28,0.818-0.428
                            c0.269,0.147,0.537,0.296,0.818,0.428c1.918,0.897,4.117,1.408,6.454,1.408c2.337,0,4.535-0.511,6.454-1.408
                            c0.767-0.358,1.489-0.78,2.158-1.255c0.334-0.238,0.655-0.49,0.961-0.754c0.613-0.527,1.167-1.105,1.654-1.727
                            c0.486-0.62,0.905-1.283,1.248-1.981c0.686-1.396,1.064-2.93,1.064-4.54v-0.001c0-1.61-0.378-3.145-1.064-4.541
                            C62.723,6.52,62.305,5.856,61.818,5.236z M37.148,22.974c-0.364,0.026-0.729,0.048-1.101,0.048s-0.736-0.021-1.1-0.048
                            c-5.414-0.578-9.637-5.379-9.637-11.215c0-5.837,4.223-10.637,9.635-11.216c0.364-0.026,0.73-0.048,1.102-0.048
                            c0.373,0,0.738,0.021,1.103,0.048c1.895,0.203,3.637,0.932,5.11,2.033c-0.093,0.063-0.191,0.117-0.282,0.181
                            c-0.334,0.238-0.655,0.489-0.961,0.753c-0.612,0.527-1.167,1.105-1.653,1.727c-0.487,0.62-0.906,1.283-1.248,1.981
                            c-0.686,1.396-1.064,2.93-1.064,4.541v0.001c0,1.61,0.379,3.145,1.064,4.54c0.342,0.698,0.761,1.361,1.248,1.981
                            c0.486,0.621,1.041,1.199,1.653,1.727c0.306,0.264,0.627,0.516,0.961,0.754c0.09,0.063,0.189,0.118,0.282,0.181
                            C40.787,22.042,39.043,22.771,37.148,22.974z M43.319,20.054c-2.13-2.061-3.465-5.016-3.465-8.295
                            c0-3.282,1.335-6.235,3.465-8.296c2.131,2.061,3.466,5.014,3.466,8.296C46.785,15.038,45.45,17.993,43.319,20.054z
                             M51.691,22.974c-0.364,0.026-0.729,0.048-1.101,0.048c-0.371,0-0.737-0.021-1.1-0.048c-1.896-0.202-3.639-0.932-5.113-2.032
                            c0.092-0.063,0.191-0.118,0.282-0.181c0.334-0.238,0.655-0.49,0.961-0.754c0.613-0.527,1.167-1.105,1.654-1.727
                            c0.486-0.62,0.905-1.283,1.248-1.981c0.686-1.396,1.064-2.93,1.064-4.54v-0.001c0-1.61-0.379-3.145-1.064-4.541
                            c-0.342-0.698-0.761-1.361-1.248-1.981c-0.487-0.621-1.041-1.199-1.654-1.727c-0.306-0.264-0.627-0.516-0.961-0.753
                            c-0.09-0.064-0.189-0.119-0.282-0.181c1.473-1.101,3.216-1.83,5.111-2.033c0.364-0.026,0.73-0.048,1.102-0.048
                            c0.372,0,0.738,0.021,1.103,0.048c5.412,0.58,9.635,5.379,9.635,11.216C61.328,17.595,57.104,22.396,51.691,22.974z"
              ></path>
              <polygon
                class="txt"
                fill="#fff"
                points="99.97,0.402 99.971,0.402 99.971,11.356 99.97,11.356 99.97,11.758 
                            99.971,11.758 99.971,22.712 99.97,22.712 99.97,23.114 117.783,23.114 117.783,22.712 102.444,22.712 102.444,11.758 
                            115.127,11.758 115.127,11.356 102.444,11.356 102.444,0.402 117.783,0.402 117.783,0 99.97,0 			"
              ></polygon>
              <rect
                class="txt"
                x="67.031"
                y="0.201"
                fill="#fff"
                width="2.473"
                height="23.115"
              ></rect>
              <polygon
                class="txt"
                fill="#fff"
                points="122.646,0 120.172,0 120.172,22.712 120.172,22.712 120.172,23.114 
                            137.116,23.114 137.116,22.712 122.646,22.712 			"
              ></polygon>
              <polygon
                class="txt"
                fill="#fff"
                points="141.978,22.712 141.978,0 139.506,0 139.506,22.712 139.506,22.712 
                            139.506,23.114 156.45,23.114 156.45,22.712 			"
              ></polygon>
              <path
                class="txt"
                fill="#fff"
                d="M84.84,0.542c0.365-0.026,0.73-0.048,1.102-0.048c0.373,0,0.739,0.021,1.104,0.048
                            c2.917,0.313,5.48,1.858,7.232,4.125h2.398c-0.361-0.405-0.742-0.797-1.159-1.157c-0.308-0.264-0.628-0.516-0.962-0.753
                            c-0.67-0.475-1.391-0.896-2.158-1.256c-1.919-0.898-4.117-1.408-6.455-1.408c-2.336,0-4.534,0.51-6.452,1.408
                            C78.721,1.86,78,2.281,77.331,2.756c-0.334,0.238-0.655,0.489-0.961,0.753c-0.613,0.527-1.167,1.105-1.654,1.727
                            c-0.486,0.62-0.905,1.283-1.248,1.981c-0.685,1.396-1.064,2.93-1.064,4.541v0.001c0,1.61,0.379,3.145,1.064,4.54
                            c0.343,0.698,0.762,1.361,1.248,1.981c0.487,0.621,1.041,1.199,1.654,1.727c0.306,0.264,0.627,0.516,0.961,0.754
                            c0.669,0.475,1.391,0.896,2.159,1.255c1.918,0.897,4.116,1.408,6.452,1.408c2.338,0,4.536-0.511,6.455-1.408
                            c0.768-0.358,1.488-0.78,2.158-1.255c0.334-0.238,0.654-0.49,0.962-0.754c0.417-0.361,0.798-0.753,1.159-1.158h-2.398
                            c-1.752,2.268-4.316,3.813-7.234,4.125c-0.363,0.026-0.729,0.048-1.102,0.048c-0.37,0-0.736-0.021-1.1-0.048
                            c-5.412-0.578-9.637-5.379-9.637-11.215C75.206,5.922,79.428,1.122,84.84,0.542z"
              ></path>
            </g>
          </g>
        </g>
      </svg>